# xmcd CD database file
#
# Track frame offsets:
#	150
#	25271
#	42892
#	58717
#	119280
#	157961
#	190799
#	219516
#	248732
#	297722
#
# Disc length: 4508 seconds
#
# Revision: 2
# Processed by: cddbd v1.5.1PL2 Copyright (c) Steve Scherf et al.
# Submitted via: CDex 1.51
#
DISCID=8d119a0a
DTITLE=Putte Wickman and Ernie Wilkins Almost Big Band - Kinda Dukish
DYEAR=2004
DGENRE=Jazz
TTITLE0=Johnny come lately
TTITLE1=Sophisticated lady
TTITLE2=Kinda Dukish
TTITLE3=Take the Coltrane
TTITLE4=The mooche
TTITLE5=Mainstream
TTITLE6=Good queen Bess
TTITLE7=My little brown book
TTITLE8=A little bit of Duke
TTITLE9=Bonus video
EXTD=YEAR: 2004
EXTT0=
EXTT1=
EXTT2=
EXTT3=
EXTT4=
EXTT5=
EXTT6=
EXTT7=
EXTT8=
EXTT9=
PLAYORDER=
